Coordinates
nRows=197
nColumns=2
inDegrees=yes
endheader
time	ankle_angle_r	
3.1873	  0.076444	
3.24979	 -0.051576	
3.31229	 -0.048776	
3.37478	 -0.019157	
3.43728	 -0.014753	
3.49978	  0.030818	
3.56227	  0.080706	
3.62477	  0.039808	
3.68726	 -0.034668	
3.74976	 -0.049090	
3.81226	 -0.051475	
3.87475	 -0.024143	
3.93725	  0.055613	
3.99974	  0.081114	
4.06224	  0.061846	
4.12474	  0.025327	
4.18723	 -0.036625	
4.24973	 -0.033250	
4.31222	  0.000940	
4.37472	 -0.010437	
4.43722	 -0.005027	
4.49971	  0.030448	
4.56221	  0.052120	
4.6247	  0.032786	
4.6872	 -0.005808	
4.7497	 -0.032767	
4.81219	 -0.055492	
4.87469	 -0.016006	
4.93718	  0.074596	
4.99968	  0.115955	
5.06218	  0.104379	
5.12467	  0.051008	
5.18717	 -0.014398	
5.24966	 -0.038868	
5.31216	 -0.024961	
5.37466	  0.007403	
5.43715	  0.031901	
5.49965	  0.039530	
5.56214	  0.000848	
5.62464	 -0.064857	
5.68714	 -0.058414	
5.74963	 -0.005572	
5.81213	  0.041523	
5.87462	  0.079783	
5.93712	  0.081846	
5.99962	  0.062579	
6.06211	  0.003275	
6.12461	 -0.059150	
6.1871	 -0.059761	
6.2496	 -0.053025	
6.3121	  0.005981	
6.37459	  0.088338	
6.43709	  0.069524	
6.49958	  0.059290	
6.56208	  0.073247	
6.62458	  0.014373	
6.68707	 -0.018685	
6.74957	  0.014115	
6.81206	  0.026402	
6.87456	  0.007557	
6.93706	  0.018687	
6.99955	  0.049146	
7.06205	  0.028126	
7.12454	 -0.007592	
7.18704	 -0.018510	
7.24954	 -0.003830	
7.31203	  0.049819	
7.37453	  0.112361	
7.43702	  0.154976	
7.49952	  0.080504	
7.56202	 -0.057028	
7.62451	 -0.055413	
7.68701	 -0.019763	
7.7495	 -0.026430	
7.812	  0.037924	
7.8745	  0.114607	
7.93699	  0.103835	
7.99949	  0.016230	
8.06198	 -0.030664	
8.12448	  0.012468	
8.18698	  0.041680	
8.24947	  0.032216	
8.31197	  0.004774	
8.37446	 -0.024469	
8.43696	 -0.014677	
8.49946	  0.013814	
8.56195	  0.022679	
8.62445	 -0.003448	
8.68694	 -0.009131	
8.74944	  0.047029	
8.81194	  0.081123	
8.87443	  0.063384	
8.93693	  0.029081	
8.99942	  0.003578	
9.06192	 -0.001850	
9.12442	 -0.030341	
9.18691	 -0.048297	
9.24941	 -0.018413	
9.3119	  0.001972	
9.3744	  0.022794	
9.4369	  0.037490	
9.49939	 -0.007445	
9.56189	 -0.051616	
9.62438	 -0.016741	
9.68688	  0.044170	
9.74938	  0.064162	
9.81187	  0.067093	
9.87437	  0.047128	
9.93686	  0.019451	
9.99936	  0.032658	
10.0619	  0.010269	
10.1244	 -0.042537	
10.1868	 -0.003791	
10.2493	  0.065318	
10.3118	  0.040705	
10.3743	 -0.028094	
10.4368	 -0.034498	
10.4993	 -0.002392	
10.5618	  0.018682	
10.6243	  0.059236	
10.6868	  0.088681	
10.7493	  0.085472	
10.8118	  0.067903	
10.8743	  0.014889	
10.9368	 -0.026182	
10.9993	 -0.019040	
11.0618	  0.023935	
11.1243	  0.067183	
11.1868	  0.046636	
11.2493	  0.012739	
11.3118	  0.017184	
11.3743	  0.029472	
11.4368	  0.030163	
11.4993	  0.002061	
11.5618	 -0.002468	
11.6243	  0.036877	
11.6868	  0.046062	
11.7492	  0.016503	
11.8117	 -0.022040	
11.8742	 -0.034643	
11.9367	 -0.018050	
11.9992	 -0.019656	
12.0617	 -0.017281	
12.1242	  0.030641	
12.1867	  0.079679	
12.2492	  0.063591	
12.3117	  0.000048	
12.3742	 -0.052561	
12.4367	 -0.071250	
12.4992	 -0.028828	
12.5617	  0.034099	
12.6242	  0.057557	
12.6867	  0.082563	
12.7492	  0.071707	
12.8117	 -0.009512	
12.8742	 -0.046736	
12.9367	 -0.003117	
12.9992	  0.051589	
13.0617	  0.066143	
13.1242	  0.052360	
13.1867	  0.028426	
13.2492	 -0.020317	
13.3116	 -0.055088	
13.3741	 -0.050102	
13.4366	 -0.006040	
13.4991	  0.051592	
13.5616	  0.061906	
13.6241	  0.062110	
13.6866	  0.068897	
13.7491	  0.053433	
13.8116	  0.043144	
13.8741	  0.017848	
13.9366	  0.003522	
13.9991	  0.032929	
14.0616	  0.016413	
14.1241	 -0.039649	
14.1866	 -0.045886	
14.2491	 -0.034398	
14.3116	 -0.064996	
14.3741	 -0.055834	
14.4366	  0.027957	
14.4991	  0.061184	
14.5616	  0.061085	
14.6241	  0.074368	
14.6866	  0.032365	
14.7491	 -0.031745	
14.8116	 -0.063751	
14.874	 -0.016373	
14.9365	  0.084226	
14.999	  0.088025	
15.0615	  0.041358	
15.124	  0.043454	
15.1865	  0.016275	
15.249	 -0.031909	
15.3115	 -0.017164	
15.374	  0.035871	
15.4365	  0.076130	
